<?xml version="1.0" encoding="UTF-8"?>
<svg id="Layer_1" data-name="Layer 1" xmlns="http://www.w3.org/2000/svg" viewBox="0 0 554.45 257.27">
  <defs>
    <style>
      .cls-1 {
        fill: #678bc3;
      }

      .cls-1, .cls-2 {
        stroke-width: 0px;
      }

      .cls-2 {
        fill: #fff;
      }
    </style>
  </defs>
  <path class="cls-2" d="m541.15,38.73c-162.93,0-325.85.09-488.78-.21-9.75-.02-12.72,2.12-12.61,12.21.57,50.07.26,100.16.26,150.24-4.31.33-2.07-2.96-2.08-4.32-.13-51.47.04-102.94-.32-154.41-.04-5.9,2.13-5.74,6.49-5.74,164.22.08,328.44.06,492.67.18,1.37,0,4.7-2.2,4.37,2.05Z"/>
  <path class="cls-2" d="m219.69,117.74c0,10.08.22,20.18-.09,30.25-.14,4.63,2.99,11.25-6.82,11.06-9-.17-6.02-6.15-6.36-10.54-.63-8.18,3.3-18.52-1.61-23.98-4.59-5.11-15.1-1.21-22.99-1.6-3.52-.18-6.37-.07-6.29-4.96.08-5.03,3.3-4.69,6.62-4.7.73,0,1.46,0,2.19,0q22.03-.46,22.04-22.83c0-2.52.14-5.05,0-7.56-.35-5.83,3.84-4.75,7.38-5.01,4.03-.3,6.06.9,5.99,5.31-.17,11.52-.06,23.05-.05,34.57Z"/>
  <path class="cls-2" d="m239.16,117.77c.07-19.96,7.6-33.07,22.16-38.31,3.43-1.24,7.78-4.43,9.87,1.08,1.46,3.85-.34,6.47-4.98,8.83-18.17,9.26-18.42,47.19-.44,57.36,4.65,2.63,7.46,5.43,5.24,9.84-2.48,4.92-7.26,1.41-10.43.22-13.99-5.26-21.49-19.35-21.42-39.02Z"/>
  <path class="cls-2" d="m307.46,118.14c.07,20.57-8.75,35.53-23.71,39.38-2.15.56-5.86,3.85-7.32-.5-1.04-3.1-1.39-6.46,2.62-9.35,21.29-15.38,21.12-44.41-.36-59.02-3.85-2.62-2.84-5.58-2.47-8.33.62-4.63,4.42-2.48,6.85-1.96,15.11,3.23,24.31,18.38,24.38,39.79Z"/>
  <path class="cls-2" d="m339.87,118.63c0,11.15-.22,22.31.1,33.46.15,5.08-1.39,6.92-6.73,6.93-5.42.02-6.71-1.99-6.66-6.99.22-22.66.19-45.33.02-68-.03-4.57,1.26-6.35,6.15-6.27,4.71.08,7.43.61,7.23,6.33-.39,11.5-.12,23.02-.11,34.54Z"/>
  <path class="cls-2" d="m394.47,117.39c0-11.15.18-22.31-.08-33.46-.11-4.71,1.56-6.16,6.28-6.17,4.87,0,7.19.82,7.12,6.44-.3,22.66-.26,45.33-.01,68,.06,5.2-1.64,6.75-6.83,6.82-5.56.07-6.68-2.21-6.56-7.09.27-11.51.09-23.02.09-34.54Z"/>
  <path class="cls-2" d="m475.86,119.35c0,11.12-.23,22.25.1,33.36.17,5.69-2.72,6.3-7.37,6.33-4.62.03-6.37-1.44-6.33-6.19.19-22.96.17-45.92,0-68.87-.03-4.59,1.37-6.39,6.2-6.23,4.43.14,7.68.17,7.51,6.09-.35,11.83-.1,23.67-.1,35.51Z"/>
  <path class="cls-2" d="m171.14,119.25c0,10.81-.18,21.63.08,32.44.12,4.85-1.06,7.21-6.56,7.32-5.74.11-7.62-1.89-7.57-7.5.23-21.99.19-43.98.03-65.97-.04-5.13.94-7.86,7.15-7.85,6.4,0,7.01,3.05,6.92,8.03-.21,11.17-.07,22.35-.06,33.53Z"/>
  <path class="cls-2" d="m351.49,129.6c-2.9-.47-7.33,1.68-7.26-4.63.06-5.68,3.77-4.86,7.36-5.27,10.13-1.18,14.85-6.48,14.43-16.39-.39-9.2-4.84-14.97-14.78-14.87-4.91.05-7.7-1.26-6.87-6.71.9-5.89,5.35-3.81,8.5-3.44,16.63,1.95,27.45,13.42,26.23,27.43-1.2,13.81-12.91,24.03-27.59,23.89Z"/>
  <path class="cls-2" d="m419.29,129.6c-2.86-.51-7.32,1.76-7.3-4.58.03-5.66,3.64-4.92,7.26-5.33,9.99-1.12,15.03-6.66,14.53-16.32-.47-9.05-4.8-15.04-14.79-14.93-4.89.05-7.65-1.17-6.89-6.66.83-5.99,5.27-3.86,8.39-3.49,16.61,1.93,27.6,13.5,26.33,27.33-1.27,13.87-12.88,24.08-27.54,23.98Z"/>
  <path class="cls-1" d="m142.85,137c-1.29,8.56-5.02,15.87-14.29,19.33-2.37.89-5.05,2.42-6.68-.53-1.21-2.18-1.35-5.27.98-6.93,11.16-7.99,9.06-15.59-.02-23.61-2.66-2.35-2.61-6.47-.79-8.98,2.72-3.76,5.93-.15,8.4,1.19,7.47,4.06,11.72,10.45,12.42,19.52Z"/>
  <path class="cls-1" d="m116.38,122.31c-10.57-4.71-18.88-9.6-19.83-21.38-.73-9.13,2.83-16.21,10.98-20.4,2.33-1.2,6.04-4.58,8.43-.72,1.53,2.47,1.76,6.55-1.15,8.92-8.84,7.21-8.44,13.98,0,21.27,3.48,3.01,1.37,7.28,1.56,12.29Z"/>
  <path class="cls-2" d="m497.65,88.34c-3.62,0-7.24-.06-10.85.02-3.57.08-6.45-.32-6.53-4.96-.08-4.23,1.86-5.68,5.89-5.61,7.6.13,15.2.11,22.79.02,3.54-.04,5.33,1.29,5.46,4.96.14,4.21-1.86,5.76-5.9,5.61-3.61-.14-7.24-.03-10.85-.03Z"/>
  <path class="cls-2" d="m497.21,148.97c3.97,0,7.94.07,11.9-.02,3.29-.07,5.54.58,5.36,4.65-.15,3.49-1.5,5.36-5.11,5.37-7.93.01-15.87-.01-23.8.02-4.32.02-5.43-2.37-5.31-6.21.14-4.54,3.44-3.7,6.14-3.79,3.6-.12,7.21-.03,10.82-.03Z"/>
  <path class="cls-2" d="m495.68,122.96c-3.65,0-7.29,0-10.94,0-3.25,0-4.44-1.78-4.49-4.79-.05-3.04,1.27-4.92,4.37-4.99,6.56-.15,13.13-.06,19.69-.13,3.54-.04,6.37.17,6.42,4.99.04,4.84-2.71,5.09-6.29,4.97-2.91-.1-5.83-.02-8.75-.02v-.04Z"/>
  <path class="cls-1" d="m108.87,158.18c-4.71-1.3-11.28-.12-12.42-7.27-.4-2.49.6-6.79,4.86-4.42,5.03,2.8,14.46-1.66,15.1,8.17.36,5.57-4.56,2.79-7.54,3.52Z"/>
  <path class="cls-1" d="m128.87,77.6c3.11.75,8.58,0,8.74,5.07.14,4.35-3.57,6.66-8.51,5.83-3.96-.67-8.28-.42-7.87-6.44.34-4.9,3.74-4.44,7.63-4.46Z"/>
</svg>